<svg xmlns="http://www.w3.org/2000/svg" viewBox="0 0 24 24" fill="currentColor" class="location-icon">
    <path fill-rule="evenodd" d="M11.48 3.497a1.5 1.5 0 0 1 1.042 0l2.583 1.292a1.5 1.5 0 0 0 1.145.088l3.323-.75a1.5 1.5 0 0 1 1.457 1.213l.752 3.322a1.5 1.5 0 0 0 .088 1.145l1.292 2.583a1.5 1.5 0 0 1 0 1.042l-1.292 2.583a1.5 1.5 0 0 0-.088 1.145l-.752 3.323a1.5 1.5 0 0 1-1.213 1.457l-3.322-.752a1.5 1.5 0 0 0-1.145-1.213l-1.292-2.583a1.5 1.5 0 0 1 0-1.042l1.292-2.583a1.5 1.5 0 0 0 .088-1.145l.752-3.323a1.5 1.5 0 0 1 1.213-1.457l3.322-.752a1.5 1.5 0 0 0 1.145-.088l2.583-1.292zM12 9a3 3 0 1 1-6 0 3 3 0 0 1 6 0z" clip-rule="evenodd" />
</svg>
